{"title":"Infamous Assassinations - Che Guevara","uid":6656637,"size":296214976,"categoryP":"video","categoryS":"tv_shows","magnet":"?xt=urn:btih:e769a59b9343ecb23c1ea9baccc5a8105c63749f&amp;dn=Infamous+Assassinations+-+Che+Guevara&amp;tr=udp%3A%2F%2Ftracker.openbittorrent.com%3A80&amp;tr=udp%3A%2F%2Fopen.demonii.com%3A1337&amp;tr=udp%3A%2F%2Ftracker.coppersurfer.tk%3A6969&amp;tr=udp%3A%2F%2Fexodus.desync.com%3A6969","seeders":0,"leechers":0,"uploader":"User_01","files":-1,"time":1315344001,"description":"Infamous Assassinations is a 2007 British documentary television series about high-profile murders and attempted murders of public figures. It is currently being shown on Yesterday. Check here for full list\n &lt;a href=&quot;\nhttp://en.wikipedia.org/wiki/Infamous_Assassinations&quot; rel=&quot;nofollow&quot; target=&quot;_NEW&quot;&gt;\nhttp://en.wikipedia.org/wiki/Infamous_Assassinations&lt;/a&gt;\n\nOn 9 October 1967 in Bolivia, Argentine communist guerilla leader Guevara was shot dead\n\nMediaInfo\nGeneral\nFormat                           : AVI\nFormat/Info                      : Audio Video Interleave\nFile size                        : 282 MiB\nDuration                         : 22mn 31s\nOverall bit rate                 : 1 754 Kbps\n\nVideo\nID                               : 0\nFormat                           : MPEG-4 Visual\nFormat settings, BVOP            : Yes\nFormat settings, QPel            : No\nFormat settings, GMC             : No warppoints\nFormat settings, Matrix          : Default (H.263)\nCodec ID                         : DIVX\nCodec ID/Info                    : Project Mayo\nCodec ID/Hint                    : DivX 4\nDuration                         : 22mn 22s\nBit rate                         : 1 498 Kbps\nWidth                            : 512 pixels\nHeight                           : 384 pixels\nDisplay aspect ratio             : 4:3\nframe rate                       : 25.000 fps\nResolution                       : 24 bits\nScan type                        : Progressive\nBits/(Pixel*frame)               : 0.305\nStream size                      : 240 MiB (85%)\n\nAudio\nFormat                           : ADPCM\nCodec ID                         : 11\nCodec ID/Hint                    : Intel\nDuration                         : 22mn 31s\nBit rate mode                    : Constant\nBit rate                         : 256 Kbps\nChannel(s)                       : 2 channels\nSampling rate                    : 32.0 KHz\nResolution                       : 4 bits\nStream size                      : 41.2 MiB (15%)\nInterleave, duration             : 40 ms (1.00 video frame)","torrent":{"xt":"urn:btih:e769a59b9343ecb23c1ea9baccc5a8105c63749f","amp;dn":"Infamous+Assassinations+-+Che+Guevara","amp;tr":["udp%3A%2F%2Ftracker.openbittorrent.com%3A80","udp%3A%2F%2Fopen.demonii.com%3A1337","udp%3A%2F%2Ftracker.coppersurfer.tk%3A6969","udp%3A%2F%2Fexodus.desync.com%3A6969"],"infoHash":"e769a59b9343ecb23c1ea9baccc5a8105c63749f","infoHashBuffer":{"type":"Buffer","data":[231,105,165,155,147,67,236,178,60,30,169,186,204,197,168,16,92,99,116,159]},"announce":[],"urlList":[]}}